<svg width="32" height="32" viewBox="0 0 32 32" fill="none" xmlns="http://www.w3.org/2000/svg">
  <!-- Dressage Favicon - Simplified horse and rider icon -->
  <rect width="32" height="32" rx="6" fill="#2563eb"/>
  
  <g transform="translate(4, 5)">
    <!-- Horse body -->
    <ellipse cx="13" cy="14" rx="8" ry="5.5" fill="white" opacity="0.95"/>

    <!-- Horse neck -->
    <path d="M19 12 Q21 10, 22 8 Q23 7, 24 6.5" stroke="white" stroke-width="2" fill="none" opacity="0.95" stroke-linecap="round"/>

    <!-- Horse head -->
    <ellipse cx="24" cy="5.5" rx="2" ry="2.5" fill="white" opacity="0.95"/>
    <path d="M25 4.5 L26 4" stroke="white" stroke-width="0.8" opacity="0.95" stroke-linecap="round"/>

    <!-- Horse legs -->
    <path d="M9 18 Q8 20, 8 22" stroke="white" stroke-width="1.8" fill="none" opacity="0.95" stroke-linecap="round"/>
    <path d="M12 18 Q11.5 21, 11.5 22.5" stroke="white" stroke-width="1.8" fill="none" opacity="0.95" stroke-linecap="round"/>
    <path d="M15 18 Q16 20, 16.5 22" stroke="white" stroke-width="1.8" fill="none" opacity="0.95" stroke-linecap="round"/>
    <path d="M18 18 Q19 19.5, 20 20.5" stroke="white" stroke-width="1.8" fill="none" opacity="0.95" stroke-linecap="round"/>

    <!-- Horse tail -->
    <path d="M6 13 Q4.5 14, 3.5 16 Q2.5 17.5, 2 19" stroke="white" stroke-width="1.3" fill="none" opacity="0.9" stroke-linecap="round"/>

    <!-- Horse mane -->
    <path d="M21 8 Q20 7, 19 6" stroke="white" stroke-width="1" fill="none" opacity="0.9" stroke-linecap="round"/>

    <!-- Rider -->
    <ellipse cx="14" cy="10" rx="2.2" ry="3.2" fill="white" opacity="0.95"/>
    <circle cx="14" cy="6.5" r="1.6" fill="white" opacity="0.95"/>
    <path d="M14 10 L12 15" stroke="white" stroke-width="1.3" opacity="0.95" stroke-linecap="round"/>
    <path d="M14 10 L16 15" stroke="white" stroke-width="1.3" opacity="0.95" stroke-linecap="round"/>
    <path d="M14 8 L11.5 11" stroke="white" stroke-width="1" opacity="0.95" stroke-linecap="round"/>

    <!-- Saddle -->
    <ellipse cx="13" cy="13" rx="2.8" ry="1.4" fill="white" opacity="0.7"/>
  </g>
</svg>

