<svg width="1600" height="1080" viewBox="0 0 1600 1080" fill="none" xmlns="http://www.w3.org/2000/svg">
  <rect width="1600" height="1080" fill="#090D18"/>
  <rect width="1600" height="1080" fill="url(#paint0_linear_1_2)" fill-opacity="0.88"/>
  <g opacity="0.9" filter="url(#filter0_f_1_2)">
    <circle cx="1290" cy="214" r="240" fill="#8B5CF6"/>
    <circle cx="317" cy="856" r="260" fill="#6366F1"/>
    <circle cx="804" cy="564" r="220" fill="#C084FC" fill-opacity="0.66"/>
  </g>
  <g opacity="0.35">
    <path d="M-93 744C132 592 338 528 541 561C709 588 814 688 984 708C1156 729 1334 640 1697 449" stroke="white" stroke-opacity="0.44" stroke-width="2"/>
    <path d="M-84 830C195 651 448 631 615 680C750 720 890 827 1058 835C1221 844 1371 775 1689 583" stroke="white" stroke-opacity="0.3" stroke-width="2"/>
    <path d="M-34 914C242 753 468 752 652 794C814 831 956 929 1116 933C1284 937 1420 877 1678 726" stroke="white" stroke-opacity="0.22" stroke-width="2"/>
  </g>
  <g opacity="0.24">
    <circle cx="1360" cy="178" r="7" fill="white"/>
    <circle cx="1403" cy="236" r="5" fill="white"/>
    <circle cx="1454" cy="202" r="5" fill="white"/>
    <circle cx="245" cy="212" r="6" fill="white"/>
    <circle cx="288" cy="166" r="4" fill="white"/>
    <circle cx="338" cy="220" r="4" fill="white"/>
    <circle cx="1204" cy="778" r="6" fill="white"/>
    <circle cx="1261" cy="820" r="4" fill="white"/>
  </g>
  <defs>
    <filter id="filter0_f_1_2" x="-183" y="-286" width="1920" height="1642" filterUnits="userSpaceOnUse" color-interpolation-filters="sRGB">
      <feFlood flood-opacity="0" result="BackgroundImageFix"/>
      <feBlend mode="normal" in="SourceGraphic" in2="BackgroundImageFix" result="shape"/>
      <feGaussianBlur stdDeviation="130" result="effect1_foregroundBlur_1_2"/>
    </filter>
    <linearGradient id="paint0_linear_1_2" x1="239" y1="87" x2="1344" y2="1017" gradientUnits="userSpaceOnUse">
      <stop stop-color="#312E81"/>
      <stop offset="0.52" stop-color="#4C1D95"/>
      <stop offset="1" stop-color="#0F172A"/>
    </linearGradient>
  </defs>
</svg>